<svg xmlns="http://www.w3.org/2000/svg" viewBox="0 0 560 180" role="img" aria-labelledby="title"><title id="title">AquaFix Plumbing</title><g transform="translate(4 4) scale(.94)"><path d="M82 4C61 39 24 68 24 109c0 37 26 65 58 65s58-28 58-65C140 68 103 39 82 4Z" fill="none" stroke="#0FA39A" stroke-width="11"/><path d="M48 85h54a16 16 0 0 1 16 16v10H81v24H49v-24H31V94h17v-9Zm14-29h33v13H62V56Zm9-17h14v22H71V39ZM55 36h46v9H55v-9Z" fill="#0D182A"/><path d="M36 145c0 12-9 22-20 22 0-13 9-24 20-34v12Z" fill="#0FA39A"/></g><text x="166" y="100" fill="#0D182A" font-family="Montserrat,Arial,sans-serif" font-size="78" font-weight="800">AQUA</text><text x="390" y="100" fill="#0FA39A" font-family="Montserrat,Arial,sans-serif" font-size="78" font-weight="800">FIX</text><text x="170" y="146" fill="#0D182A" font-family="Montserrat,Arial,sans-serif" font-size="32" font-weight="700" letter-spacing="15">PLUMBING</text></svg>
