<svg xmlns="http://www.w3.org/2000/svg" viewBox="0 0 128 160" role="img" aria-labelledby="title"><title id="title">AquaFix tap and water drop symbol</title><defs><linearGradient id="a" x1="0" x2="1" y1="0" y2="1"><stop stop-color="#0FA39A"/><stop offset="1" stop-color="#7AD6D1"/></linearGradient></defs><path d="M64 5C47 34 17 57 17 91c0 30 21 53 47 53s47-23 47-53C111 57 81 34 64 5Z" fill="none" stroke="url(#a)" stroke-width="10"/><path d="M38 72h43a15 15 0 0 1 15 15v9H66v20H39V96H25V82h13v-10Zm11-23h28v12H49V49Zm8-13h12v18H57V36ZM44 34h38v8H44v-8Z" fill="#0D182A"/><path d="M26 126c0 11-8 20-18 20 0-12 8-21 18-30 0 0 0 5 0 10Z" fill="#0FA39A"/></svg>
